# xmcd CD database file
#
# Track frame offsets:
#	150
#	28279
#	52123
#	77486
#	101255
#	135819
#	154776
#	188389
#	226096
#	249626
#	255728
#
# Disc length: 3933 seconds
#
# Revision: 0
# Processed by: cddbd v1.5.2PL0 Copyright (c) Steve Scherf et al.
# Submitted via: CDex 1.51
#
DISCID=7c0f5b0b
DTITLE=Pagan Altar - Mythical and Magical
DYEAR=2006
DGENRE=Doom Metal
TTITLE0=Samhein
TTITLE1=The Cry of the Banshee
TTITLE2=The Crowman
TTITLE3=Daemoni Na Noiche (Demons Of The Night)
TTITLE4=The Sorcerer
TTITLE5=Flight of the Witch Queen
TTITLE6=Dance of the Druids
TTITLE7=The Erl King
TTITLE8=The Witches Pathway
TTITLE9=Sharnie
TTITLE10=The Rising of the Dark Lord
EXTD=YEAR: 2006
EXTT0=
EXTT1=
EXTT2=
EXTT3=
EXTT4=
EXTT5=
EXTT6=
EXTT7=
EXTT8=
EXTT9=
EXTT10=
PLAYORDER=
